<svg width="356" height="137" viewBox="0 0 356 137" fill="none" xmlns="http://www.w3.org/2000/svg">
<g clip-path="url(#clip0_1_23)">
<path d="M221.917 130H185.15C184.312 130.001 183.5 129.706 182.858 129.167C182.216 128.628 181.785 127.88 181.64 127.054C180.342 119.629 178.732 114.271 177.44 113.069C175.26 111.041 170.138 111.58 166.025 112.014C164.639 112.162 163.328 112.3 162.16 112.347C152.062 112.859 151.471 106.357 150.894 100.063C150.745 97.6158 150.361 95.1886 149.747 92.815C149.433 91.6702 148.888 90.6015 148.147 89.6739C147.407 88.7464 146.484 87.9795 145.437 87.4201C143.752 86.3098 141.842 85.0511 142.009 81.8643C142.09 80.3226 143.303 78.9783 144.842 77.2768C147.212 74.6529 150.457 71.0608 150.471 65.3786C150.477 63.9059 150.325 61.938 150.176 60.0359C150.057 58.5005 149.944 57.0496 149.906 55.8035C149.876 54.854 149.889 53.892 149.94 52.9436C149.959 52.5973 150.115 52.2728 150.373 52.0413C150.631 51.8099 150.971 51.6905 151.317 51.7095C151.664 51.7285 151.988 51.8842 152.22 52.1425C152.451 52.4008 152.57 52.7404 152.552 53.0867C152.505 53.962 152.493 54.8488 152.519 55.722C152.557 56.9076 152.667 58.3333 152.784 59.8333C152.936 61.7886 153.093 63.8098 153.086 65.387C153.072 72.0719 149.286 76.2563 146.783 79.0263C145.738 80.1857 144.653 81.3849 144.62 82.0011C144.536 83.6285 145.21 84.1393 146.879 85.2391C148.182 85.9689 149.327 86.949 150.25 88.1232C151.173 89.2973 151.855 90.6423 152.256 92.0807C152.917 94.6162 153.331 97.2096 153.493 99.8248C154.083 106.252 154.433 110.129 162.039 109.738C163.141 109.694 164.411 109.561 165.754 109.419C170.638 108.904 176.172 108.322 179.222 111.158C181.485 113.262 183.191 120.719 184.216 126.605C184.255 126.826 184.371 127.026 184.543 127.169C184.715 127.313 184.932 127.391 185.156 127.391H221.923C222.073 127.391 222.22 127.357 222.354 127.29C222.488 127.223 222.604 127.126 222.693 127.006C222.783 126.889 222.843 126.752 222.869 126.607C222.896 126.461 222.887 126.312 222.844 126.171C221.606 121.909 219.466 113.758 219.04 107.048C218.777 102.904 219.981 96.7988 222.801 93.1451C233.316 79.5037 236.82 68.7556 234.897 56.0469C234.752 55.087 234.591 54.1803 234.403 53.2758C234.363 53.1061 234.358 52.9302 234.387 52.7584C234.417 52.5865 234.48 52.4223 234.574 52.2754C234.667 52.1285 234.79 52.0018 234.933 51.9028C235.077 51.8039 235.238 51.7346 235.409 51.6992C235.58 51.6638 235.756 51.6629 235.927 51.6966C236.098 51.7302 236.26 51.7978 236.405 51.8953C236.549 51.9928 236.673 52.1182 236.768 52.2641C236.863 52.4101 236.928 52.5737 236.959 52.7451C237.158 53.6967 237.328 54.6483 237.481 55.6562C239.496 68.9697 235.726 80.6579 224.872 94.7401C222.476 97.8475 221.425 103.317 221.65 106.883C222.06 113.343 224.148 121.283 225.356 125.442C225.51 125.974 225.539 126.535 225.438 127.08C225.338 127.625 225.112 128.14 224.778 128.582C224.445 129.025 224.012 129.383 223.515 129.63C223.019 129.876 222.471 130.002 221.917 130Z" fill="#182E08"/>
<path d="M158.992 94.9312H151.309C150.962 94.9312 150.63 94.7937 150.385 94.5488C150.14 94.304 150.003 93.9719 150.003 93.6256C150.003 93.2793 150.14 92.9472 150.385 92.7024C150.63 92.4575 150.962 92.3199 151.309 92.3199H158.992C159.338 92.3199 159.67 92.4575 159.915 92.7024C160.16 92.9472 160.298 93.2793 160.298 93.6256C160.298 93.9719 160.16 94.304 159.915 94.5488C159.67 94.7937 159.338 94.9312 158.992 94.9312Z" fill="#182E08"/>
<path d="M158.031 69.6236C159.271 69.6236 160.277 68.6181 160.277 67.3778C160.277 66.1376 159.271 65.1321 158.031 65.1321C156.791 65.1321 155.785 66.1376 155.785 67.3778C155.785 68.6181 156.791 69.6236 158.031 69.6236Z" fill="#182E08"/>
<path d="M195.713 55.0953C193.683 55.1352 191.666 54.766 189.782 54.0096C187.897 53.2532 186.185 52.1251 184.746 50.6927C182.014 47.9052 180.486 44.1564 180.49 40.2533C180.495 36.3503 182.032 32.6051 184.771 29.8242C187.038 27.5622 190.11 26.2918 193.313 26.2918C196.516 26.2918 199.588 27.5622 201.855 29.8242C203.713 31.687 204.757 34.211 204.757 36.8423C204.757 39.4737 203.713 41.9977 201.855 43.8605C200.316 45.3954 198.231 46.2573 196.058 46.2573C193.884 46.2573 191.8 45.3954 190.261 43.8605C188.983 42.5803 188.265 40.8456 188.265 39.0369C188.265 37.2282 188.983 35.4934 190.261 34.2133C191.334 33.1423 192.788 32.5408 194.305 32.5408C195.821 32.5408 197.275 33.1423 198.348 34.2133C199.254 35.1209 199.762 36.3505 199.762 37.6325C199.762 38.9145 199.254 40.1442 198.348 41.0518C198.227 41.1729 198.083 41.2691 197.925 41.3347C197.767 41.4002 197.597 41.434 197.426 41.434C197.254 41.434 197.085 41.4002 196.926 41.3347C196.768 41.2691 196.624 41.1729 196.503 41.0518C196.382 40.9306 196.286 40.7867 196.22 40.6284C196.154 40.47 196.121 40.3003 196.121 40.1289C196.121 39.9575 196.154 39.7878 196.22 39.6295C196.286 39.4712 196.382 39.3273 196.503 39.2061C196.919 38.7885 197.153 38.2228 197.153 37.633C197.153 37.0433 196.919 36.4776 196.503 36.06C195.92 35.4778 195.129 35.1508 194.305 35.1508C193.481 35.1508 192.691 35.4778 192.107 36.06C191.319 36.8501 190.876 37.9207 190.876 39.0369C190.876 40.153 191.319 41.2236 192.107 42.0138C193.157 43.0603 194.578 43.6481 196.06 43.6481C197.542 43.6481 198.963 43.0603 200.012 42.0138C201.381 40.6413 202.15 38.7819 202.15 36.8434C202.15 34.9048 201.381 33.0454 200.012 31.673C198.235 29.9001 195.827 28.9044 193.317 28.9044C190.807 28.9044 188.399 29.9001 186.622 31.673C184.367 33.9745 183.106 37.0694 183.111 40.2912C183.116 43.5131 184.385 46.6043 186.647 48.8992C190.414 52.8914 197.396 53.6852 202.531 50.7063C202.83 50.5323 203.187 50.4844 203.521 50.5731C203.687 50.6171 203.843 50.6932 203.979 50.7973C204.115 50.9013 204.23 51.0311 204.316 51.1794C204.402 51.3277 204.458 51.4915 204.481 51.6615C204.504 51.8314 204.493 52.0042 204.449 52.17C204.405 52.3357 204.329 52.4912 204.225 52.6275C204.121 52.7639 203.991 52.8784 203.843 52.9645C201.367 54.3763 198.563 55.1112 195.713 55.0953Z" fill="#182E08"/>
<path d="M206.717 49.9218C206.464 49.9209 206.216 49.8461 206.004 49.7066C205.792 49.5671 205.625 49.3689 205.524 49.1363C205.423 48.9036 205.392 48.6466 205.435 48.3965C205.478 48.1465 205.592 47.9143 205.765 47.7283C206.305 47.1693 206.771 46.5434 207.152 45.866C207.234 45.7128 207.347 45.5778 207.483 45.4688C207.618 45.3598 207.775 45.279 207.942 45.2312C208.109 45.1835 208.285 45.1696 208.457 45.1905C208.63 45.2115 208.797 45.2667 208.948 45.3531C209.099 45.4395 209.232 45.5552 209.337 45.6934C209.443 45.8317 209.52 45.9897 209.564 46.1581C209.608 46.3266 209.617 46.5021 209.592 46.6743C209.567 46.8466 209.508 47.0121 209.418 47.1612C208.936 48.015 208.348 48.8052 207.67 49.5134C207.547 49.6431 207.4 49.7463 207.236 49.8165C207.072 49.8868 206.895 49.9226 206.717 49.9218Z" fill="#182E08"/>
<path d="M226.247 51.3037C224.282 51.3025 222.373 50.6575 220.81 49.4675C219.222 48.2672 218.176 46.4853 217.902 44.5137C217.627 42.5422 218.147 40.5424 219.348 38.9544C220.35 37.63 221.837 36.7577 223.482 36.5291C225.127 36.3006 226.796 36.7344 228.122 37.7354C228.674 38.1529 229.139 38.6752 229.489 39.2723C229.84 39.8695 230.069 40.5298 230.165 41.2157C230.26 41.9015 230.219 42.5994 230.045 43.2695C229.87 43.9396 229.566 44.5688 229.148 45.1212C228.432 46.0685 227.368 46.6925 226.192 46.8561C225.015 47.0196 223.822 46.7093 222.874 45.9934C222.733 45.8916 222.614 45.7627 222.523 45.6142C222.433 45.4658 222.373 45.3007 222.347 45.1288C222.321 44.9569 222.33 44.7816 222.373 44.6131C222.416 44.4447 222.492 44.2864 222.597 44.1478C222.702 44.0091 222.833 43.8927 222.983 43.8055C223.134 43.7183 223.3 43.662 223.472 43.6399C223.645 43.6178 223.82 43.6304 223.987 43.6769C224.155 43.7234 224.312 43.8028 224.448 43.9106C224.843 44.209 225.341 44.3383 225.832 44.2701C226.323 44.202 226.766 43.942 227.065 43.5471C227.276 43.2681 227.43 42.9503 227.518 42.6118C227.606 42.2732 227.626 41.9207 227.578 41.5743C227.529 41.2279 227.413 40.8945 227.236 40.5932C227.058 40.2918 226.823 40.0285 226.543 39.8182C225.77 39.2343 224.797 38.9813 223.837 39.1146C222.877 39.248 222.01 39.7569 221.425 40.5295C221.037 41.0421 220.753 41.6263 220.591 42.2485C220.429 42.8708 220.391 43.5189 220.479 44.1559C220.567 44.7929 220.78 45.4062 221.106 45.9608C221.432 46.5153 221.863 47.0003 222.377 47.3878C223.74 48.4181 225.456 48.8649 227.149 48.6298C228.842 48.3948 230.371 47.4972 231.402 46.1344C232.722 44.3474 233.287 42.1138 232.977 39.9142C232.666 37.7146 231.504 35.7249 229.742 34.3731C228.652 33.5694 227.39 33.0294 226.056 32.7954C224.722 32.5614 223.352 32.6399 222.054 33.0246C220.831 33.3014 219.689 33.8576 218.717 34.6497C217.745 35.4418 216.97 36.4483 216.452 37.5902C216.391 37.7528 216.298 37.9015 216.178 38.0276C216.059 38.1538 215.915 38.2548 215.756 38.3248C215.597 38.3947 215.426 38.4323 215.252 38.4352C215.078 38.4381 214.906 38.4063 214.745 38.3416C214.583 38.277 214.437 38.1808 214.313 38.0587C214.189 37.9366 214.091 37.7911 214.025 37.6306C213.958 37.4702 213.924 37.298 213.925 37.1243C213.925 36.9506 213.961 36.7787 214.029 36.6188C214.689 35.0922 215.699 33.7425 216.978 32.6794C218.257 31.6163 219.768 30.8696 221.39 30.5C223.082 30.0112 224.865 29.9224 226.597 30.2408C228.33 30.5591 229.965 31.2757 231.373 32.3342C233.67 34.1086 235.179 36.7142 235.574 39.5899C235.969 42.4656 235.219 45.3814 233.485 47.7095C232.77 48.6603 231.874 49.4599 230.848 50.0619C229.822 50.664 228.687 51.0566 227.508 51.217C227.09 51.2752 226.669 51.3042 226.247 51.3037Z" fill="#182E08"/>
<path d="M214.879 28.7118C213.466 28.7076 212.098 28.2174 211.004 27.3234C209.91 26.4295 209.157 25.1862 208.871 23.8025C208.596 22.4575 208.866 21.0583 209.621 19.9118C210.376 18.7654 211.555 17.9652 212.9 17.6869C214.044 17.4518 215.234 17.6807 216.21 18.3231C217.185 18.9655 217.866 19.969 218.101 21.1129C218.202 21.5996 218.205 22.1012 218.111 22.5892C218.017 23.0772 217.829 23.5419 217.555 23.9568C217.282 24.3718 216.93 24.7288 216.518 25.0075C216.107 25.2863 215.645 25.4813 215.158 25.5814C214.988 25.6223 214.811 25.6285 214.638 25.5996C214.465 25.5707 214.3 25.5073 214.152 25.4133C214.004 25.3192 213.877 25.1963 213.778 25.052C213.678 24.9076 213.609 24.7448 213.574 24.5731C213.539 24.4014 213.539 24.2244 213.573 24.0527C213.608 23.881 213.677 23.718 213.776 23.5735C213.875 23.429 214.002 23.3059 214.15 23.2115C214.298 23.1172 214.463 23.0536 214.636 23.0244C214.94 22.9615 215.207 22.7803 215.378 22.5206C215.549 22.2609 215.61 21.9439 215.548 21.6393C215.452 21.1738 215.175 20.7654 214.778 20.5039C214.381 20.2424 213.896 20.1493 213.43 20.2449C212.764 20.3827 212.18 20.779 211.806 21.3468C211.432 21.9147 211.298 22.6077 211.434 23.274C211.528 23.7292 211.71 24.1615 211.97 24.5461C212.231 24.9308 212.565 25.2604 212.953 25.5159C213.341 25.7714 213.776 25.948 214.232 26.0354C214.688 26.1228 215.157 26.1193 215.612 26.0253C216.845 25.7701 217.925 25.0366 218.617 23.9857C219.31 22.9348 219.557 21.6522 219.305 20.4193C218.951 18.7966 217.975 17.3776 216.585 16.4681C215.196 15.5586 213.505 15.2315 211.876 15.5571C210.887 15.7745 209.961 16.2185 209.172 16.8541C208.384 17.4898 207.753 18.2997 207.33 19.2202C206.882 20.0403 206.63 20.9531 206.594 21.8869C206.558 22.8208 206.738 23.7503 207.121 24.6027C207.268 24.9106 207.289 25.2638 207.179 25.5868C207.069 25.9098 206.838 26.177 206.533 26.3313C206.229 26.4856 205.876 26.5147 205.551 26.4125C205.225 26.3102 204.953 26.0846 204.791 25.784C204.215 24.5704 203.933 23.2381 203.968 21.8952C204.003 20.5523 204.354 19.2365 204.993 18.0546C205.598 16.7694 206.494 15.6426 207.609 14.763C208.725 13.8835 210.03 13.2753 211.421 12.9865C213.72 12.538 216.103 13.0108 218.057 14.3028C220.011 15.5949 221.379 17.6028 221.866 19.894C222.257 21.805 221.873 23.793 220.8 25.422C219.727 27.0509 218.052 28.1878 216.142 28.5833C215.727 28.6696 215.303 28.7127 214.879 28.7118Z" fill="#182E08"/>
<path d="M211.445 43.9148C211.204 43.9141 210.969 43.847 210.764 43.721C210.559 43.5949 210.394 43.4148 210.285 43.2005C210.176 42.9862 210.128 42.746 210.147 42.5064C210.166 42.2668 210.251 42.037 210.392 41.8425C211.311 40.589 211.616 40.2276 211.668 40.1712C211.896 39.9107 212.219 39.7515 212.565 39.7287C212.91 39.7058 213.251 39.8213 213.511 40.0495C213.772 40.2778 213.931 40.6002 213.954 40.9459C213.977 41.2915 213.861 41.6321 213.633 41.8926C213.627 41.8989 213.355 42.2185 212.5 43.3873C212.378 43.552 212.219 43.6855 212.035 43.7772C211.852 43.8688 211.65 43.916 211.445 43.9148Z" fill="#182E08"/>
<path d="M180.683 50.4859C180.442 50.4857 180.206 50.4188 180.001 50.2926C179.16 49.7894 178.384 49.1827 177.693 48.4866C177.568 48.3664 177.469 48.2225 177.4 48.0633C177.331 47.9041 177.295 47.7328 177.293 47.5594C177.292 47.3861 177.324 47.2141 177.39 47.0536C177.455 46.893 177.552 46.7471 177.674 46.6244C177.797 46.5016 177.942 46.4044 178.103 46.3386C178.263 46.2727 178.435 46.2394 178.608 46.2407C178.782 46.2419 178.953 46.2777 179.112 46.3459C179.272 46.4141 179.416 46.5133 179.537 46.6378C180.083 47.1901 180.698 47.6703 181.366 48.0668C181.608 48.2154 181.796 48.4393 181.9 48.7044C182.003 48.9694 182.018 49.2611 181.94 49.535C181.863 49.809 181.698 50.0501 181.471 50.2217C181.244 50.3934 180.967 50.4861 180.683 50.4859Z" fill="#182E08"/>
<path d="M160.019 52.3482C159.595 52.3485 159.172 52.3192 158.753 52.2605C157.574 52.1001 156.439 51.7075 155.413 51.1054C154.387 50.5033 153.491 49.7038 152.776 48.753C151.043 46.4258 150.293 43.5114 150.687 40.6367C151.081 37.762 152.588 35.1569 154.883 33.3818C156.291 32.324 157.926 31.6077 159.659 31.2894C161.391 30.9711 163.174 31.0595 164.866 31.5477C166.488 31.9171 167.999 32.6634 169.278 33.7261C170.557 34.7889 171.567 36.1381 172.227 37.6644C172.295 37.8243 172.331 37.9961 172.331 38.1699C172.332 38.3436 172.298 38.5157 172.231 38.6762C172.165 38.8366 172.067 38.9822 171.943 39.1043C171.819 39.2263 171.673 39.3225 171.511 39.3872C171.35 39.4518 171.178 39.4836 171.004 39.4807C170.83 39.4778 170.659 39.4403 170.5 39.3703C170.341 39.3003 170.197 39.1993 170.078 39.0732C169.958 38.9471 169.865 38.7984 169.804 38.6358C169.286 37.4939 168.511 36.4874 167.539 35.6953C166.567 34.9032 165.425 34.3469 164.202 34.0702C162.904 33.685 161.534 33.6064 160.2 33.8404C158.866 34.0743 157.604 34.6146 156.514 35.4187C154.752 36.7708 153.59 38.7607 153.28 40.9603C152.969 43.16 153.534 45.3937 154.854 47.181C155.364 47.8561 156.003 48.424 156.733 48.8523C157.463 49.2805 158.271 49.5608 159.109 49.677C159.948 49.7932 160.801 49.7431 161.62 49.5295C162.439 49.3159 163.208 48.9431 163.884 48.4323C164.396 48.045 164.828 47.5604 165.153 47.0062C165.479 46.4521 165.692 45.8393 165.78 45.2028C165.869 44.5663 165.831 43.9186 165.669 43.2967C165.507 42.6748 165.225 42.0908 164.837 41.5782C164.252 40.8056 163.385 40.2967 162.425 40.1633C161.466 40.03 160.492 40.283 159.719 40.8669C159.44 41.0771 159.204 41.3403 159.027 41.6416C158.849 41.9428 158.733 42.2762 158.684 42.6225C158.636 42.9687 158.656 43.3212 158.744 43.6597C158.832 43.9981 158.986 44.3159 159.197 44.5948C159.496 44.99 159.939 45.2504 160.43 45.3188C160.921 45.3871 161.419 45.2578 161.814 44.9593C161.951 44.8515 162.107 44.7721 162.275 44.7256C162.442 44.6791 162.617 44.6665 162.79 44.6886C162.962 44.7107 163.128 44.767 163.279 44.8542C163.429 44.9414 163.561 45.0578 163.665 45.1965C163.77 45.3351 163.846 45.4934 163.889 45.6618C163.932 45.8303 163.941 46.0056 163.915 46.1775C163.889 46.3494 163.829 46.5145 163.739 46.6629C163.648 46.8114 163.529 46.9403 163.388 47.0421C162.441 47.7582 161.247 48.0685 160.07 47.9047C158.894 47.741 157.83 47.1166 157.114 46.1689C156.696 45.6165 156.392 44.9873 156.217 44.3172C156.043 43.647 156.002 42.9491 156.098 42.2633C156.193 41.5775 156.423 40.9171 156.773 40.32C157.124 39.7228 157.588 39.2006 158.141 38.7831C159.466 37.7822 161.135 37.3485 162.78 37.5773C164.425 37.806 165.912 38.6785 166.915 40.0031C168.113 41.5911 168.632 43.5901 168.358 45.5606C168.083 47.5312 167.037 49.3121 165.45 50.512C163.889 51.7005 161.981 52.3454 160.019 52.3482Z" fill="#182E08"/>
<path d="M175.269 45.4513C174.937 45.4518 174.617 45.3255 174.376 45.0982C173.707 44.4789 173.135 43.7614 172.682 42.9705C172.59 42.819 172.529 42.6502 172.505 42.4747C172.48 42.2991 172.491 42.1203 172.538 41.9493C172.585 41.7783 172.666 41.6185 172.776 41.4799C172.887 41.3412 173.024 41.2264 173.181 41.1426C173.337 41.0588 173.509 41.0077 173.685 40.9924C173.862 40.9771 174.04 40.998 174.208 41.0537C174.376 41.1094 174.532 41.1988 174.664 41.3165C174.797 41.4341 174.904 41.5775 174.979 41.738C175.302 42.2756 175.699 42.7651 176.158 43.192C176.349 43.3709 176.482 43.6033 176.54 43.8589C176.597 44.1144 176.577 44.3814 176.48 44.6251C176.384 44.8688 176.217 45.0779 176 45.2252C175.784 45.3726 175.528 45.4513 175.266 45.4513H175.269Z" fill="#182E08"/>
<path d="M207.222 33.3651C207.168 33.3653 207.114 33.3618 207.061 33.3547C206.891 33.3339 206.726 33.2797 206.577 33.1953C206.428 33.1109 206.297 32.9979 206.191 32.8628C206.085 32.7276 206.008 32.573 205.962 32.4078C205.916 32.2425 205.903 32.0698 205.924 31.8997C205.938 31.1839 205.87 30.469 205.721 29.7688C205.685 29.5982 205.684 29.4221 205.717 29.2509C205.751 29.0798 205.818 28.9171 205.916 28.7725C206.013 28.6278 206.139 28.5042 206.285 28.4088C206.431 28.3134 206.594 28.2483 206.766 28.2171C206.937 28.186 207.113 28.1896 207.284 28.2276C207.454 28.2657 207.615 28.3374 207.757 28.4386C207.899 28.5398 208.019 28.6685 208.11 28.8169C208.202 28.9654 208.263 29.1306 208.289 29.303C208.501 30.2593 208.577 31.2407 208.515 32.2182C208.476 32.5343 208.324 32.8253 208.085 33.0366C207.847 33.2478 207.54 33.3647 207.222 33.3651Z" fill="#182E08"/>
<path d="M171.381 29.7563C170.96 29.7565 170.54 29.7135 170.128 29.6278C168.218 29.2323 166.542 28.0954 165.469 26.4665C164.396 24.8376 164.013 22.8496 164.404 20.9385C164.892 18.6477 166.26 16.6403 168.213 15.3484C170.167 14.0565 172.55 13.5834 174.849 14.0311C176.24 14.3198 177.545 14.928 178.66 15.8075C179.776 16.6871 180.672 17.8139 181.277 19.0991C181.915 20.281 182.266 21.5968 182.301 22.9397C182.336 24.2826 182.054 25.6149 181.478 26.8285C181.319 27.1327 181.047 27.3621 180.72 27.4671C180.394 27.5722 180.039 27.5445 179.732 27.39C179.426 27.2356 179.192 26.9667 179.083 26.6416C178.973 26.3164 178.995 25.9611 179.145 25.6524C179.528 24.8 179.709 23.8705 179.673 22.9367C179.636 22.0028 179.384 21.0901 178.936 20.27C178.513 19.3494 177.883 18.5395 177.094 17.9039C176.305 17.2683 175.38 16.8243 174.39 16.6068C172.762 16.2812 171.071 16.6084 169.681 17.5179C168.292 18.4274 167.315 19.8464 166.962 21.4691C166.71 22.702 166.957 23.9845 167.649 25.0354C168.341 26.0863 169.422 26.8198 170.654 27.075C171.109 27.1691 171.578 27.1725 172.035 27.0851C172.491 26.9977 172.926 26.8212 173.314 26.5656C173.702 26.3101 174.035 25.9806 174.296 25.5959C174.557 25.2112 174.739 24.7789 174.832 24.3238C174.968 23.6575 174.834 22.9647 174.46 22.397C174.086 21.8293 173.502 21.433 172.836 21.2947C172.37 21.2002 171.886 21.294 171.489 21.5555C171.093 21.817 170.816 22.2249 170.719 22.6901C170.656 22.9947 170.717 23.3117 170.888 23.5714C171.059 23.8311 171.326 24.0123 171.631 24.0752C171.803 24.1043 171.969 24.168 172.116 24.2623C172.264 24.3567 172.391 24.4798 172.49 24.6243C172.589 24.7688 172.658 24.9318 172.693 25.1035C172.728 25.2752 172.728 25.4522 172.693 25.6239C172.657 25.7955 172.588 25.9584 172.489 26.1027C172.39 26.2471 172.262 26.37 172.114 26.464C171.967 26.5581 171.801 26.6215 171.629 26.6504C171.456 26.6793 171.279 26.6731 171.108 26.6322C170.622 26.5321 170.159 26.337 169.748 26.0582C169.337 25.7794 168.984 25.4223 168.711 25.0072C168.437 24.5922 168.249 24.1273 168.155 23.6392C168.061 23.1512 168.065 22.6494 168.165 22.1627C168.403 21.0199 169.084 20.0178 170.059 19.3757C171.033 18.7337 172.223 18.5039 173.367 18.7366C174.711 19.0155 175.89 19.8159 176.645 20.9624C177.4 22.109 177.67 23.5082 177.395 24.8533C177.11 26.237 176.357 27.4802 175.263 28.3742C174.169 29.2682 172.8 29.7584 171.387 29.7626L171.381 29.7563Z" fill="#182E08"/>
<path d="M178.368 33.7307C178.024 33.7318 177.694 33.5971 177.45 33.3558C177.205 33.1145 177.066 32.7864 177.062 32.4428C177.104 31.4163 177.289 30.4007 177.612 29.4252C177.661 29.261 177.742 29.1081 177.85 28.9752C177.958 28.8423 178.091 28.732 178.242 28.6506C178.393 28.5693 178.558 28.5184 178.729 28.5009C178.899 28.4835 179.072 28.4997 179.236 28.5488C179.4 28.598 179.553 28.6789 179.686 28.7871C179.819 28.8953 179.929 29.0286 180.01 29.1795C180.092 29.3303 180.143 29.4957 180.16 29.6661C180.178 29.8366 180.161 30.0089 180.112 30.1731C179.872 30.9038 179.725 31.6618 179.674 32.4292C179.671 32.7742 179.533 33.1043 179.288 33.3479C179.044 33.5915 178.713 33.7291 178.368 33.7307Z" fill="#182E08"/>
<path d="M190.89 20.0788C190.644 20.0789 190.403 20.0095 190.195 19.8787C189.987 19.7478 189.82 19.5609 189.713 19.3393C189.079 18.0787 188.168 16.977 187.05 16.1159C185.95 15.2269 185.059 14.1075 184.439 12.8366C183.819 11.5657 183.485 10.1743 183.461 8.76042C183.419 7.52186 183.657 6.28975 184.157 5.15584C184.657 4.02193 185.406 3.01543 186.349 2.21127C188.111 0.668945 190.408 -0.119836 192.746 0.0147671C195.083 0.14937 197.275 1.19659 198.848 2.93095C199.492 3.6509 199.988 4.49078 200.308 5.40258C200.628 6.31439 200.765 7.28026 200.711 8.24502C200.658 9.20977 200.414 10.1545 199.996 11.0252C199.577 11.896 198.99 12.6757 198.27 13.3197C197.669 13.858 196.967 14.2725 196.205 14.5396C195.443 14.8066 194.636 14.921 193.83 14.8762C193.024 14.8314 192.235 14.6283 191.507 14.2784C190.78 13.9285 190.128 13.4388 189.59 12.8372C189.137 12.3304 188.787 11.7393 188.562 11.0975C188.337 10.4558 188.241 9.77596 188.279 9.09696C188.317 8.41795 188.488 7.75306 188.783 7.14026C189.078 6.52746 189.491 5.97877 189.998 5.52554C190.428 5.13971 190.931 4.84258 191.477 4.65114C192.023 4.45969 192.601 4.37767 193.178 4.40978C193.756 4.44189 194.321 4.58749 194.842 4.83826C195.364 5.08904 195.83 5.44006 196.216 5.87127C196.884 6.62 197.228 7.60308 197.172 8.60499C197.116 9.6069 196.666 10.5459 195.919 11.2161C195.661 11.4474 195.321 11.5666 194.975 11.5475C194.629 11.5284 194.304 11.3726 194.073 11.1142C193.841 10.8559 193.722 10.5163 193.741 10.1701C193.76 9.82383 193.916 9.49937 194.175 9.26805C194.29 9.1654 194.383 9.04111 194.45 8.9023C194.517 8.76348 194.556 8.61285 194.564 8.45901C194.573 8.30517 194.551 8.15113 194.5 8.00571C194.449 7.86028 194.37 7.72631 194.268 7.61144C194.111 7.43577 193.921 7.29274 193.709 7.19055C193.497 7.08836 193.266 7.02902 193.031 7.01592C192.796 7.00282 192.561 7.03623 192.339 7.11422C192.117 7.19221 191.912 7.31326 191.737 7.47043C191.485 7.69516 191.281 7.96724 191.134 8.27112C190.988 8.575 190.903 8.90471 190.885 9.24142C190.866 9.57813 190.914 9.91522 191.025 10.2334C191.137 10.5516 191.31 10.8447 191.535 11.096C191.845 11.4421 192.219 11.7238 192.638 11.9251C193.056 12.1263 193.51 12.2432 193.974 12.269C194.438 12.2948 194.902 12.229 195.34 12.0754C195.778 11.9218 196.182 11.6834 196.528 11.3738C196.992 10.9582 197.371 10.4552 197.641 9.89345C197.911 9.33168 198.068 8.72219 198.102 8.09982C198.136 7.47745 198.048 6.85439 197.841 6.26626C197.635 5.67812 197.315 5.13644 196.899 4.67216C195.777 3.44765 194.22 2.71248 192.562 2.62496C190.904 2.53744 189.278 3.10457 188.034 4.20422C187.388 4.76118 186.876 5.4566 186.536 6.23873C186.196 7.02086 186.037 7.86959 186.07 8.72177C186.086 9.75014 186.328 10.7624 186.778 11.6872C187.228 12.612 187.876 13.4267 188.675 14.0739C190.1 15.1793 191.258 16.5916 192.063 18.206C192.137 18.3604 192.181 18.528 192.19 18.6992C192.2 18.8704 192.176 19.0419 192.119 19.2037C192.062 19.3656 191.974 19.5146 191.86 19.6424C191.746 19.7702 191.607 19.8741 191.453 19.9483C191.277 20.034 191.085 20.0786 190.89 20.0788Z" fill="#182E08"/>
<path d="M193.026 25.267C192.729 25.2666 192.441 25.165 192.209 24.9789C191.978 24.7928 191.817 24.5333 191.752 24.2433C191.609 23.7073 191.424 23.1834 191.198 22.6766C191.061 22.358 191.057 21.9983 191.186 21.6767C191.315 21.355 191.566 21.0978 191.885 20.9615C192.204 20.8252 192.563 20.821 192.885 20.9499C193.207 21.0788 193.464 21.3302 193.6 21.6487C193.892 22.3051 194.127 22.9851 194.303 23.6814C194.378 24.0193 194.315 24.3731 194.129 24.665C193.943 24.9568 193.649 25.1628 193.311 25.2377C193.217 25.2577 193.121 25.2675 193.026 25.267Z" fill="#182E08"/>
<path d="M178.733 40.236C178.491 40.2362 178.254 40.169 178.048 40.0419C177.842 39.9148 177.675 39.7328 177.567 39.5163C177.058 38.4933 176.763 37.3773 176.7 36.2365C176.699 36.0651 176.731 35.8951 176.796 35.7362C176.861 35.5774 176.956 35.4328 177.076 35.3108C177.197 35.1888 177.34 35.0917 177.498 35.0251C177.656 34.9585 177.826 34.9236 177.997 34.9225H178.005C178.35 34.9228 178.681 35.0593 178.925 35.3023C179.17 35.5453 179.309 35.8751 179.311 36.2198C179.371 36.958 179.57 37.6783 179.898 38.3423C179.998 38.5413 180.045 38.7625 180.035 38.985C180.026 39.2074 179.96 39.4237 179.843 39.6133C179.726 39.803 179.563 39.9597 179.369 40.0687C179.175 40.1776 178.956 40.2352 178.733 40.236Z" fill="#182E08"/>
<path d="M206.259 39.8255C206.04 39.8252 205.825 39.7701 205.633 39.6652C205.442 39.5604 205.279 39.4091 205.161 39.2253C205.043 39.0415 204.973 38.831 204.957 38.613C204.941 38.3951 204.981 38.1766 205.071 37.9777C205.344 37.3255 205.514 36.6349 205.574 35.9305C205.583 35.7587 205.627 35.5905 205.702 35.4357C205.777 35.2809 205.882 35.1427 206.011 35.0291C206.14 34.9155 206.291 34.8289 206.454 34.7744C206.617 34.7198 206.789 34.6985 206.961 34.7115C207.132 34.7224 207.299 34.7669 207.453 34.8425C207.607 34.9181 207.744 35.0232 207.857 35.1519C207.97 35.2807 208.057 35.4304 208.113 35.5927C208.168 35.755 208.191 35.9265 208.18 36.0976C208.1 37.1164 207.853 38.1151 207.448 39.0536C207.345 39.2832 207.178 39.4782 206.967 39.6151C206.756 39.7521 206.51 39.8251 206.259 39.8255Z" fill="#182E08"/>
</g>
<path d="M16.256 108.288V92.928C16.256 87.8507 14.976 85.312 12.416 85.312C10.2827 85.312 8.64 86.4853 7.488 88.832C6.37867 91.1787 5.824 95.3173 5.824 101.248V111.296C5.39733 111.893 4.65067 112.192 3.584 112.192C2.51733 112.192 1.664 111.872 1.024 111.232C0.384 110.549 0.064 109.568 0.064 108.288V83.968C0.490667 83.3707 1.23733 83.072 2.304 83.072C3.37067 83.072 4.224 83.4133 4.864 84.096C5.504 84.736 5.824 85.696 5.824 86.976C7.27467 84.3733 9.728 83.072 13.184 83.072C17.2373 83.072 19.968 84.8 21.376 88.256C22.8267 84.8 25.536 83.072 29.504 83.072C32.2773 83.072 34.4747 83.9467 36.096 85.696C37.76 87.4453 38.592 89.9627 38.592 93.248V102.336C38.592 104.768 38.976 106.603 39.744 107.84C40.512 109.077 41.6427 109.696 43.136 109.696C44.672 109.696 46.016 108.757 47.168 106.88C48.32 104.96 48.896 101.739 48.896 97.216C48.9387 96.96 49.2587 96.832 49.856 96.832C50.624 96.832 51.008 97.9627 51.008 100.224C51.008 103.851 50.2187 106.752 48.64 108.928C47.104 111.104 44.8427 112.192 41.856 112.192C38.8693 112.192 36.5653 111.168 34.944 109.12C33.3653 107.072 32.576 104.171 32.576 100.416V92.928C32.576 87.8507 31.296 85.312 28.736 85.312C24.384 85.312 22.208 90.6667 22.208 101.376V111.296C21.7813 111.893 21.0133 112.192 19.904 112.192C18.8373 112.192 17.9627 111.872 17.28 111.232C16.5973 110.549 16.256 109.568 16.256 108.288ZM48.4255 76.8C47.7002 76.0747 47.3375 75.1787 47.3375 74.112C47.3375 73.0453 47.7002 72.1493 48.4255 71.424C49.1508 70.656 50.0468 70.272 51.1135 70.272C52.1802 70.272 53.0762 70.656 53.8015 71.424C54.5695 72.1493 54.9535 73.0453 54.9535 74.112C54.9535 75.1787 54.5695 76.0747 53.8015 76.8C53.0762 77.5253 52.1802 77.888 51.1135 77.888C50.0468 77.888 49.1508 77.5253 48.4255 76.8ZM48.1695 86.976C48.1695 85.696 48.4895 84.736 49.1295 84.096C49.7695 83.4133 50.5802 83.072 51.5615 83.072C52.5428 83.072 53.3322 83.3707 53.9295 83.968V102.336C53.9295 104.768 54.3988 106.603 55.3375 107.84C56.2762 109.077 57.5562 109.696 59.1775 109.696C60.7988 109.696 62.3135 108.715 63.7215 106.752C65.1295 104.789 65.8335 101.611 65.8335 97.216C65.9188 96.96 66.2388 96.832 66.7935 96.832C67.5615 96.832 67.9455 97.9627 67.9455 100.224C67.9455 103.509 67.0495 106.325 65.2575 108.672C63.4655 111.019 61.1828 112.192 58.4095 112.192C54.9535 112.192 52.3722 111.168 50.6655 109.12C49.0015 107.072 48.1695 104.171 48.1695 100.416V86.976ZM99.6415 96.832C100.41 96.832 100.794 97.9627 100.794 100.224C100.794 103.851 100.004 106.752 98.4255 108.928C96.8895 111.104 94.6282 112.192 91.6415 112.192C88.6548 112.192 86.3508 111.168 84.7295 109.12C83.1508 107.072 82.3615 104.171 82.3615 100.416V92.928C82.3615 87.8507 81.0815 85.312 78.5215 85.312C76.2602 85.312 74.4042 86.464 72.9535 88.768C71.5028 91.072 70.7775 94.9333 70.7775 100.352V111.296C70.3508 111.893 69.6042 112.192 68.5375 112.192C67.4708 112.192 66.6175 111.872 65.9775 111.232C65.3375 110.549 65.0175 109.568 65.0175 108.288V83.968C65.4442 83.3707 66.2548 83.072 67.4495 83.072C69.6682 83.072 70.7775 84.672 70.7775 87.872C72.5695 84.672 75.4068 83.072 79.2895 83.072C82.0628 83.072 84.2602 83.9467 85.8815 85.696C87.5455 87.4453 88.3775 89.9627 88.3775 93.248V102.336C88.3775 104.768 88.7615 106.603 89.5295 107.84C90.2975 109.077 91.4282 109.696 92.9215 109.696C94.4575 109.696 95.8015 108.757 96.9535 106.88C98.1055 104.96 98.6815 101.739 98.6815 97.216C98.7242 96.96 99.0442 96.832 99.6415 96.832ZM97.87 97.152C97.87 92.2453 99.022 88.6827 101.326 86.464C103.673 84.2027 106.766 83.072 110.606 83.072C113.081 83.072 115.043 83.5627 116.494 84.544V75.84C116.494 70.464 117.027 66.56 118.094 64.128C119.203 61.6533 121.251 60.416 124.238 60.416C125.859 60.416 127.118 61.0987 128.014 62.464C128.91 63.8293 129.358 65.7707 129.358 68.288C129.358 72.8533 126.99 77.504 122.254 82.24V102.336C122.254 104.768 122.659 106.603 123.47 107.84C124.323 109.077 125.433 109.696 126.798 109.696C128.163 109.696 129.465 108.864 130.702 107.2C131.982 105.493 132.622 102.805 132.622 99.136C132.622 98.3253 132.601 97.6853 132.558 97.216C132.601 96.96 132.921 96.832 133.518 96.832C134.286 96.832 134.67 97.9627 134.67 100.224C134.67 103.765 133.859 106.645 132.238 108.864C130.659 111.083 128.611 112.192 126.094 112.192C121.529 112.192 118.542 110.187 117.134 106.176C116.323 107.968 115.214 109.419 113.806 110.528C112.398 111.595 110.819 112.128 109.07 112.128C101.603 112.128 97.87 107.136 97.87 97.152ZM109.71 109.632C111.289 109.632 112.782 108.779 114.19 107.072C115.641 105.323 116.366 103.104 116.366 100.416V92.224C116.366 90.1333 115.854 88.512 114.83 87.36C113.849 86.1653 112.675 85.568 111.31 85.568C109.987 85.568 108.942 85.6747 108.174 85.888C107.449 86.1013 106.723 86.5707 105.998 87.296C104.633 88.704 103.95 91.9893 103.95 97.152C103.95 102.357 104.547 105.771 105.742 107.392C106.809 108.885 108.131 109.632 109.71 109.632ZM124.302 62.912C123.406 62.912 122.83 63.9147 122.574 65.92C122.361 67.8827 122.254 72.2987 122.254 79.168C125.155 75.4133 126.606 71.7653 126.606 68.224C126.606 64.6827 125.838 62.912 124.302 62.912ZM251.763 99.136C250.056 98.5387 248.349 97.92 246.643 97.28C244.979 96.5973 243.571 95.6373 242.419 94.4C241.267 93.1627 240.691 91.584 240.691 89.664C240.691 87.7013 241.587 86.1227 243.379 84.928C245.171 83.6907 247.773 83.072 251.187 83.072C254.643 83.072 257.331 83.6693 259.251 84.864C261.213 86.0587 262.195 87.4453 262.195 89.024C262.195 89.792 261.896 90.4107 261.299 90.88C260.744 91.3493 260.189 91.584 259.635 91.584C258.568 91.584 257.864 91.328 257.523 90.816C257.779 90.5173 257.907 89.9413 257.907 89.088C257.907 88.192 257.245 87.3813 255.923 86.656C254.6 85.9307 253.128 85.568 251.507 85.568C249.885 85.568 248.541 85.8667 247.475 86.464C246.408 87.0613 245.875 87.9787 245.875 89.216C245.875 90.4107 246.472 91.456 247.667 92.352C248.904 93.248 250.376 93.9947 252.083 94.592C253.832 95.1893 255.56 95.8293 257.267 96.512C259.016 97.1947 260.488 98.176 261.683 99.456C262.92 100.693 263.539 102.229 263.539 104.064C263.539 106.795 262.344 108.843 259.955 110.208C257.608 111.531 254.493 112.192 250.611 112.192C246.771 112.192 243.635 111.083 241.203 108.864C238.813 106.603 237.619 103.808 237.619 100.48C237.619 99.2853 237.853 98.3467 238.323 97.664C238.792 96.9813 239.325 96.64 239.923 96.64C241.032 96.64 241.672 96.832 241.843 97.216L241.971 97.408C241.715 98.048 241.587 98.8373 241.587 99.776C241.587 102.635 242.419 105.003 244.083 106.88C245.747 108.757 248.051 109.696 250.995 109.696C255.517 109.696 257.8 108.096 257.843 104.896C257.843 102.464 255.816 100.544 251.763 99.136ZM301.025 96.832C301.793 96.832 302.177 97.9627 302.177 100.224C302.177 103.509 301.324 106.325 299.617 108.672C297.953 111.019 295.777 112.192 293.089 112.192C290.401 112.192 288.161 111.253 286.369 109.376C284.62 107.456 283.745 105.003 283.745 102.016V92.928C283.745 87.8507 282.465 85.312 279.905 85.312C277.644 85.312 275.788 86.464 274.337 88.768C272.887 91.072 272.161 94.9333 272.161 100.352V111.296C271.735 111.893 270.988 112.192 269.921 112.192C268.855 112.192 268.001 111.872 267.361 111.232C266.721 110.549 266.401 109.568 266.401 108.288V76.224C266.401 70.6773 266.935 66.6667 268.001 64.192C269.068 61.6747 271.116 60.416 274.145 60.416C275.767 60.416 277.025 61.0987 277.921 62.464C278.817 63.8293 279.265 65.7707 279.265 68.288C279.265 72.8533 276.897 77.504 272.161 82.24V87.872C273.953 84.672 276.791 83.072 280.673 83.072C283.447 83.072 285.644 83.9467 287.265 85.696C288.929 87.4453 289.761 89.9627 289.761 93.248V102.336C289.761 104.768 290.145 106.603 290.913 107.84C291.681 109.077 292.812 109.696 294.305 109.696C295.799 109.696 297.121 108.693 298.273 106.688C299.468 104.64 300.065 101.483 300.065 97.216C300.108 96.96 300.428 96.832 301.025 96.832ZM272.161 79.168C275.063 75.4133 276.513 71.7653 276.513 68.224C276.513 64.6827 275.745 62.912 274.209 62.912C273.356 62.912 272.801 63.8933 272.545 65.856C272.289 67.8187 272.161 72.256 272.161 79.168ZM299.638 76.8C298.913 76.0747 298.55 75.1787 298.55 74.112C298.55 73.0453 298.913 72.1493 299.638 71.424C300.363 70.656 301.259 70.272 302.326 70.272C303.393 70.272 304.289 70.656 305.014 71.424C305.782 72.1493 306.166 73.0453 306.166 74.112C306.166 75.1787 305.782 76.0747 305.014 76.8C304.289 77.5253 303.393 77.888 302.326 77.888C301.259 77.888 300.363 77.5253 299.638 76.8ZM299.382 86.976C299.382 85.696 299.702 84.736 300.342 84.096C300.982 83.4133 301.793 83.072 302.774 83.072C303.755 83.072 304.545 83.3707 305.142 83.968V102.336C305.142 104.768 305.611 106.603 306.55 107.84C307.489 109.077 308.769 109.696 310.39 109.696C312.011 109.696 313.526 108.715 314.934 106.752C316.342 104.789 317.046 101.611 317.046 97.216C317.131 96.96 317.451 96.832 318.006 96.832C318.774 96.832 319.158 97.9627 319.158 100.224C319.158 103.509 318.262 106.325 316.47 108.672C314.678 111.019 312.395 112.192 309.622 112.192C306.166 112.192 303.585 111.168 301.878 109.12C300.214 107.072 299.382 104.171 299.382 100.416V86.976ZM331.654 86.208H321.99V135.424C321.563 136.021 320.817 136.32 319.75 136.32C318.683 136.32 317.83 135.979 317.19 135.296C316.55 134.656 316.23 133.696 316.23 132.416V76.224C316.23 70.8053 316.806 66.816 317.958 64.256C319.11 61.696 321.158 60.416 324.102 60.416C328.326 60.416 330.438 63.2747 330.438 68.992C330.438 75.5627 328.219 80.5547 323.782 83.968H329.478C330.374 83.968 330.95 84.1387 331.206 84.48C331.505 84.8213 331.654 85.3973 331.654 86.208ZM327.686 69.056C327.686 64.96 326.662 62.912 324.614 62.912C324.059 62.912 323.633 63.104 323.334 63.488C323.035 63.8293 322.801 64.7467 322.63 66.24C322.289 68.8 322.075 74.2613 321.99 82.624C325.787 79.8507 327.686 75.328 327.686 69.056ZM333.207 77.504C333.207 76.224 333.527 75.264 334.167 74.624C334.807 73.9413 335.618 73.6 336.599 73.6C337.581 73.6 338.37 73.8987 338.967 74.496V83.968H347.735C348.631 83.968 349.207 84.1387 349.463 84.48C349.762 84.8213 349.911 85.3973 349.911 86.208H338.967V102.336C338.967 104.683 339.629 106.496 340.951 107.776C342.317 109.056 343.874 109.696 345.623 109.696C348.269 109.696 350.21 108.715 351.447 106.752C352.685 104.789 353.303 101.611 353.303 97.216C353.389 96.96 353.709 96.832 354.263 96.832C355.031 96.832 355.415 97.9627 355.415 100.224C355.415 103.68 354.541 106.539 352.791 108.8C351.085 111.061 348.439 112.192 344.855 112.192C341.271 112.192 338.434 111.253 336.343 109.376C334.253 107.499 333.207 104.704 333.207 100.992V77.504Z" fill="#182E08"/>
<defs>
<clipPath id="clip0_1_23">
<rect width="130" height="130" fill="white" transform="translate(125)"/>
</clipPath>
</defs>
</svg>
